<?xml version="1.0" encoding="UTF-8"?> <svg xmlns="http://www.w3.org/2000/svg" width="202" height="48" viewBox="0 0 202 48" fill="none"><g clip-path="url(#clip0_211_1400)"><path d="M38 0H10C4.47715 0 0 4.47715 0 10V38C0 43.5228 4.47715 48 10 48H38C43.5228 48 48 43.5228 48 38V10C48 4.47715 43.5228 0 38 0Z" fill="#00AAFF"></path><path fill-rule="evenodd" clip-rule="evenodd" d="M23.8831 28.3198C24.3553 28.3198 24.7379 28.703 24.7379 29.176C24.7379 29.6478 24.3553 30.031 23.8831 30.031C23.412 30.031 23.0283 29.6478 23.0283 29.176C23.0283 28.703 23.412 28.3198 23.8831 28.3198ZM22.5629 25.825L21.6702 24.1668L21.4565 26.4062L19.3975 27.7054V23.8389L21.2313 21.5097C21.3542 15.2048 20.6269 11.7859 23.8831 6C27.1393 11.779 26.412 15.2117 26.5349 21.5097L28.3687 23.8389V27.7054L26.3086 26.4062L26.096 24.1668L25.2033 25.825H22.5629ZM29.8704 39.3348C29.4257 39.4867 29.1856 39.9723 29.3372 40.4199C29.4889 40.8664 29.9749 41.1069 30.4207 40.9539C30.8677 40.802 31.1066 40.3164 30.9538 39.8687C30.8022 39.4222 30.3173 39.1829 29.8704 39.3348ZM28.0952 32.8906C27.6483 33.0425 27.4093 33.5281 27.5609 33.9746C27.7137 34.4222 28.1986 34.6616 28.6455 34.5097C29.0913 34.3578 29.3303 33.871 29.1787 33.4246C29.0259 32.9769 28.541 32.7376 28.0952 32.8906ZM28.9834 36.1127C28.5364 36.2646 28.2986 36.7502 28.4502 37.1978C28.6019 37.6443 29.0868 37.8837 29.5337 37.7318C29.9795 37.5799 30.2185 37.0931 30.0668 36.6466C29.9152 36.2002 29.4292 35.9596 28.9834 36.1127ZM27.2059 29.6697C26.7601 29.8216 26.52 30.306 26.6716 30.7537C26.8233 31.2013 27.3093 31.4407 27.7563 31.2888C28.202 31.1369 28.441 30.6501 28.2882 30.2036C28.1366 29.756 27.6517 29.5178 27.2059 29.6697ZM18.1291 39.3348C18.576 39.4867 18.8139 39.9723 18.6622 40.4199C18.5105 40.8664 18.0257 41.1069 17.5799 40.9539C17.1329 40.802 16.8939 40.3164 17.0456 39.8687C17.1973 39.4222 17.6833 39.1829 18.1291 39.3348ZM19.7514 32.8906C20.1972 33.0425 20.4362 33.5281 20.2834 33.9746C20.1317 34.4222 19.6469 34.6616 19.2011 34.5097C18.7541 34.3578 18.5151 33.871 18.6668 33.4246C18.8196 32.9769 19.3045 32.7376 19.7514 32.8906ZM18.9414 36.1127C19.3872 36.2646 19.6262 36.7502 19.4734 37.1978C19.3217 37.6443 18.8368 37.8837 18.391 37.7318C17.9441 37.5799 17.7051 37.0931 17.8568 36.6466C18.0084 36.199 18.4933 35.9596 18.9414 36.1127ZM20.5603 29.6697C21.0072 29.8216 21.2451 30.306 21.0934 30.7537C20.9417 31.2013 20.4569 31.4407 20.0099 31.2888C19.5641 31.1369 19.3252 30.6501 19.4768 30.2036C19.6285 29.756 20.1133 29.5178 20.5603 29.6697ZM23.8831 39.2888C24.3553 39.2888 24.7379 39.6731 24.7379 40.1449C24.7379 40.6167 24.3553 40.9999 23.8831 40.9999C23.412 40.9999 23.0283 40.6167 23.0283 40.1449C23.0283 39.6731 23.412 39.2888 23.8831 39.2888ZM23.8831 31.9758C24.3553 31.9758 24.7379 32.359 24.7379 32.8319C24.7379 33.3049 24.3553 33.6869 23.8831 33.6869C23.412 33.6869 23.0283 33.3049 23.0283 32.8319C23.0283 32.359 23.412 31.9758 23.8831 31.9758ZM23.8831 35.6328C24.3553 35.6328 24.7379 36.0149 24.7379 36.489C24.7379 36.9608 24.3553 37.344 23.8831 37.344C23.412 37.344 23.0283 36.9608 23.0283 36.489C23.0283 36.0149 23.412 35.6328 23.8831 35.6328Z" fill="white"></path><path fill-rule="evenodd" clip-rule="evenodd" d="M199.29 33.3899V24.8492C199.29 24.3459 199.234 23.911 199.123 23.5486C199.02 23.2003 198.863 22.9124 198.658 22.6889C198.458 22.4695 198.197 22.3044 197.873 22.1916C197.534 22.0728 197.124 22.0144 196.644 22.0144C195.996 22.0144 195.442 22.099 194.981 22.2721C194.538 22.4372 194.178 22.6849 193.904 23.0111C193.624 23.3473 193.411 23.7983 193.266 24.364C193.115 24.9459 193.041 25.6546 193.041 26.4841V33.3899V33.7564H192.678H190.693H190.333V33.3899V14.6455V14.2791H190.693H192.678H193.041V14.6455V20.3192C193.041 20.5628 193.036 20.8004 193.026 21.0279L193.173 20.891C193.471 20.6212 193.82 20.3876 194.208 20.1923C194.591 19.9971 195.006 19.85 195.446 19.7494C195.887 19.6527 196.35 19.6024 196.832 19.6024C197.667 19.6024 198.406 19.7051 199.042 19.9084H199.044C199.697 20.1178 200.246 20.4339 200.687 20.8547C201.132 21.2836 201.464 21.8292 201.682 22.4956C201.895 23.1419 202 23.9009 202 24.7767V33.3899V33.7564H201.636H199.654H199.29V33.3899ZM187.266 29.786C187.266 30.4565 187.141 31.0544 186.892 31.5779C186.638 32.1074 186.257 32.5564 185.754 32.9249C185.265 33.2853 184.677 33.557 183.996 33.7362C183.326 33.9114 182.563 34 181.717 34C180.831 34 180.034 33.9255 179.331 33.7806C178.615 33.6356 177.995 33.4101 177.477 33.1162L177.292 33.0115V32.798V30.9437V30.3518L177.817 30.6155C178.119 30.7685 178.436 30.9095 178.762 31.0303C179.082 31.1511 179.42 31.2598 179.77 31.3484C180.123 31.437 180.463 31.5055 180.791 31.5497C181.115 31.59 181.439 31.6122 181.766 31.6122C182.265 31.6122 182.698 31.5739 183.066 31.4974C183.423 31.4249 183.725 31.3122 183.97 31.1652C184.192 31.0343 184.357 30.8692 184.466 30.6759H184.464C184.574 30.4766 184.629 30.235 184.629 29.9572C184.629 29.7559 184.586 29.5706 184.502 29.4055C184.415 29.2323 184.282 29.0693 184.101 28.9183C183.902 28.7552 183.596 28.5679 183.187 28.3646C182.772 28.1572 182.247 27.9297 181.615 27.6861C181.011 27.4606 180.481 27.2412 180.028 27.0338C179.581 26.8264 179.219 26.6311 178.945 26.4499H178.943C178.665 26.2646 178.421 26.0673 178.214 25.8559C178.001 25.6405 177.821 25.409 177.685 25.1654C177.542 24.9177 177.435 24.6479 177.364 24.354C177.294 24.062 177.26 23.752 177.26 23.4258C177.26 22.8318 177.381 22.2923 177.624 21.8151C177.868 21.3399 178.232 20.9292 178.713 20.5849C179.182 20.2467 179.738 19.991 180.376 19.8259C181.005 19.6608 181.713 19.5783 182.496 19.5783C183.223 19.5783 183.944 19.6547 184.661 19.8057C185.37 19.9527 186.074 20.1782 186.771 20.4742L187.109 20.6192L186.962 20.9574L186.257 22.5862L186.117 22.9144L185.788 22.7775C185.148 22.5137 184.54 22.3144 183.966 22.1836C183.4 22.0547 182.863 21.9903 182.354 21.9903C181.478 21.9903 180.831 22.1211 180.415 22.3788C180.227 22.4936 180.086 22.6305 180 22.7815C179.913 22.9285 179.871 23.1017 179.871 23.2949C179.871 23.5708 179.937 23.8003 180.066 23.9835C180.139 24.0821 180.237 24.1808 180.358 24.2794C180.485 24.3841 180.64 24.4868 180.819 24.5855L180.823 24.5895C181.011 24.6962 181.288 24.8291 181.655 24.9841C182.027 25.1432 182.496 25.3284 183.06 25.5418C183.854 25.8297 184.52 26.1257 185.06 26.4177V26.4197C185.617 26.7257 186.046 27.0378 186.346 27.3559V27.3579C186.652 27.682 186.886 28.0485 187.039 28.4552C187.192 28.8619 187.266 29.3069 187.266 29.786ZM167.857 31.6122C168.993 31.6122 169.881 31.3061 170.513 30.692C170.825 30.39 171.063 30.0236 171.22 29.5988C171.377 29.1659 171.457 28.6606 171.457 28.0908V27.2794L169.855 27.3438H169.853C169.087 27.372 168.429 27.4465 167.879 27.5653C167.354 27.68 166.935 27.8371 166.625 28.0324L166.621 28.0344C166.331 28.2176 166.112 28.4492 165.967 28.729C165.822 29.0149 165.747 29.3612 165.747 29.7639C165.747 30.08 165.792 30.3538 165.88 30.5833H165.882C165.969 30.8028 166.1 30.988 166.271 31.137C166.448 31.292 166.665 31.4088 166.919 31.4873H166.921C167.187 31.5699 167.501 31.6122 167.857 31.6122ZM171.981 33.4645L171.723 32.2222C171.518 32.4497 171.312 32.6511 171.105 32.8262C170.753 33.1303 170.396 33.3638 170.042 33.5269H170.04C169.691 33.6819 169.297 33.8027 168.86 33.8833C168.429 33.9598 167.962 34 167.463 34C166.774 34 166.158 33.9074 165.61 33.7262C165.055 33.543 164.569 33.2611 164.163 32.8886C163.754 32.5121 163.446 32.0551 163.241 31.5215C163.041 31.0001 162.941 30.4041 162.941 29.7397C162.941 28.272 163.522 27.1565 164.69 26.3854C165.804 25.6505 167.453 25.2479 169.635 25.1834L171.505 25.1211V24.656C171.505 24.1708 171.455 23.754 171.357 23.4077C171.262 23.0795 171.121 22.8138 170.938 22.6084H170.936C170.759 22.4071 170.519 22.256 170.227 22.1514C169.915 22.0426 169.534 21.9903 169.085 21.9903C168.572 21.9903 168.02 22.0688 167.439 22.2278C166.841 22.3909 166.208 22.6385 165.54 22.9627L165.19 23.1339L165.045 22.7714L164.437 21.2393L164.318 20.9393L164.602 20.7823C164.94 20.597 165.294 20.4299 165.665 20.285C166.029 20.144 166.412 20.0172 166.806 19.9185C167.205 19.8158 167.604 19.7353 168.002 19.683C168.409 19.6306 168.812 19.6024 169.206 19.6024C170.024 19.6024 170.736 19.695 171.348 19.8803C171.979 20.0695 172.504 20.3614 172.925 20.75C173.346 21.1406 173.662 21.65 173.869 22.2681C174.069 22.8681 174.171 23.5728 174.171 24.3821V33.3899V33.7564H173.807H172.335H172.041L171.981 33.4645ZM157.833 33.7564H155.556L155.477 33.4946L151.954 21.7024C151.867 21.4306 151.777 21.1305 151.684 20.8044C151.611 20.5386 151.525 20.2366 151.438 19.9004L151.428 19.9426C151.287 20.5326 151.12 21.1446 150.931 21.7708L147.512 33.4926L147.436 33.7564H147.164H145.159H144.879L144.806 33.4826L140.159 15.8716L140.039 15.4126H140.51H142.658H142.94L143.01 15.6884L145.771 26.5646V26.5667C145.956 27.3116 146.121 28.0304 146.262 28.721L146.304 28.5317C146.465 27.8009 146.654 27.0841 146.866 26.3835H146.864L149.991 15.6743L150.067 15.4126H150.341H151.507L151.601 14.8348L151.632 15.4126H152.493H152.761L152.842 15.6723L156.123 26.4761C156.315 27.0982 156.496 27.7707 156.661 28.4874L156.727 28.7874C156.868 28.1049 157.046 27.3539 157.253 26.5405H157.251L159.999 15.6884L160.07 15.4126H160.351H162.506H162.979L162.856 15.8736L158.181 33.4826L158.111 33.7564H157.833ZM136.093 31.6122C136.265 31.6122 136.43 31.6041 136.584 31.594C136.75 31.582 136.907 31.5638 137.053 31.5397C137.207 31.5155 137.348 31.4894 137.471 31.4632C137.604 31.435 137.71 31.4108 137.788 31.3887L138.248 31.2598V31.741V33.2692V33.5027L138.038 33.6014C137.912 33.6618 137.757 33.7181 137.581 33.7665C137.416 33.8128 137.219 33.853 136.992 33.8893L136.988 33.8913C136.785 33.9235 136.58 33.9497 136.371 33.9698C136.162 33.9879 135.972 34 135.805 34C134.437 34 133.398 33.6235 132.695 32.8746C131.996 32.1316 131.644 31.0343 131.644 29.5948V22.107H130.133H129.768V21.7426V20.7802V20.5407L129.987 20.444L131.708 19.6789L132.494 17.0233L132.572 16.7616H132.844H133.989H134.354V17.128V19.8199H137.791H138.155V20.1863V21.7426V22.107H137.791H134.354V29.5122C134.354 29.8726 134.395 30.1887 134.477 30.4585C134.555 30.7122 134.672 30.9276 134.823 31.0988C134.974 31.2679 135.152 31.3967 135.357 31.4793C135.567 31.5678 135.814 31.6122 136.093 31.6122ZM122.565 21.9903C122.084 21.9903 121.656 22.0668 121.285 22.2198C120.919 22.3688 120.597 22.6003 120.321 22.9044C120.039 23.2164 119.812 23.5889 119.645 24.0237C119.514 24.364 119.418 24.7425 119.356 25.1573H125.417C125.397 24.7083 125.335 24.3077 125.234 23.9533C125.109 23.5204 124.922 23.154 124.676 22.8601C124.437 22.5742 124.143 22.3547 123.799 22.2097C123.448 22.0627 123.036 21.9903 122.565 21.9903ZM123.103 34C122.091 34 121.181 33.841 120.374 33.5269C119.563 33.2088 118.856 32.7336 118.261 32.0994C117.664 31.4672 117.215 30.7122 116.919 29.8364C116.626 28.9746 116.479 27.9921 116.479 26.8968C116.479 25.7975 116.615 24.807 116.886 23.9251C117.159 23.0312 117.571 22.252 118.122 21.5876C118.678 20.9212 119.331 20.4178 120.079 20.0816C120.826 19.7474 121.663 19.5783 122.589 19.5783C123.456 19.5783 124.237 19.7252 124.93 20.0151C125.631 20.3091 126.241 20.75 126.755 21.3339C127.267 21.9158 127.651 22.5923 127.905 23.3553C128.156 24.1124 128.283 24.9579 128.283 25.8861V27.1485V27.5149H127.92H119.278C119.317 28.0988 119.414 28.6223 119.564 29.0793C119.74 29.6149 119.996 30.0679 120.328 30.4323C120.657 30.7907 121.059 31.0605 121.524 31.2417C122.001 31.4249 122.553 31.5176 123.177 31.5176C123.858 31.5176 124.535 31.4451 125.205 31.3021C125.877 31.1612 126.547 30.9437 127.213 30.6558L127.72 30.4363V30.992V32.7759V33.0175L127.499 33.1141C127.141 33.2692 126.788 33.4041 126.447 33.5168C126.105 33.6275 125.77 33.7181 125.442 33.7886C125.107 33.8591 124.742 33.9134 124.352 33.9477C123.968 33.9819 123.551 34 123.103 34ZM107.385 25.5942L107.421 25.5499H107.423C107.696 25.2157 108.005 24.8493 108.348 24.4627L108.355 24.4546L112.584 19.9366L112.693 19.8199H112.849H115.201H116.048L115.464 20.44L110.371 25.8378L115.862 33.1685L116.303 33.7564H115.572H113.171H112.989L112.88 33.6094L108.488 27.6821L107.417 28.6163V33.3899V33.7564H107.054H105.096H104.731V33.3899V14.6455V14.2791H105.096H107.054H107.417V14.6455V24.5815C107.417 24.7949 107.409 25.0828 107.393 25.4452L107.385 25.5942ZM98.1172 34C97.1254 34 96.2375 33.843 95.4598 33.5309C94.6709 33.2128 93.9977 32.7376 93.4408 32.1075C92.8887 31.4793 92.4711 30.7243 92.1967 29.8424C91.9269 28.9747 91.7908 27.9821 91.7908 26.8727C91.7908 25.7331 91.9285 24.7164 92.203 23.8285C92.4798 22.9265 92.9028 22.1533 93.4659 21.5131C94.0315 20.8668 94.7189 20.3796 95.5242 20.0574C96.3201 19.7373 97.2293 19.5783 98.2469 19.5783C98.5678 19.5783 98.8958 19.5964 99.227 19.6326C99.5556 19.6669 99.886 19.7212 100.212 19.7916C100.531 19.8601 100.82 19.9386 101.077 20.0212C101.342 20.1078 101.578 20.2044 101.778 20.3051L102.066 20.45L101.957 20.754L101.35 22.4574L101.223 22.8137L100.875 22.6728C100.664 22.5882 100.44 22.5077 100.208 22.4372C99.9741 22.3648 99.735 22.3044 99.4952 22.25H99.4936C99.2457 22.1936 99.0105 22.1513 98.7951 22.1231C98.59 22.097 98.39 22.0829 98.199 22.0829C96.9863 22.0829 96.0833 22.4654 95.4936 23.2244C94.8817 24.0117 94.5749 25.2197 94.5749 26.8485C94.5749 27.6317 94.652 28.3183 94.8038 28.9042C94.9532 29.48 95.1781 29.9652 95.4731 30.3599C95.7618 30.7444 96.1188 31.0323 96.5412 31.2256C96.9712 31.4189 97.4818 31.5176 98.0677 31.5176C98.5922 31.5176 99.1207 31.4612 99.6524 31.3484C100.19 31.2336 100.736 31.0625 101.287 30.835L101.788 30.6296V31.1732V32.945V33.1685L101.591 33.2692C101.126 33.5128 100.598 33.698 100.013 33.8188C99.4338 33.9376 98.8014 34 98.1172 34ZM79.23 26.7781C79.23 27.5915 79.3111 28.3042 79.4676 28.9122C79.6224 29.5062 79.8538 30.0075 80.1574 30.4082C80.4545 30.7988 80.8212 31.0947 81.2561 31.29C81.6972 31.4873 82.2211 31.588 82.8219 31.588C83.4196 31.588 83.9419 31.4873 84.3871 31.29C84.8236 31.0967 85.1924 30.8028 85.492 30.4162C85.7986 30.0135 86.0283 29.5142 86.184 28.9223C86.342 28.3122 86.4216 27.5975 86.4216 26.7781C86.4216 25.9667 86.342 25.256 86.184 24.6519C86.0283 24.0661 85.7986 23.5707 85.492 23.1761C85.1938 22.7896 84.8219 22.4996 84.3822 22.3084V22.3064C83.9354 22.1131 83.4047 22.0144 82.7975 22.0144C82.1951 22.0144 81.6712 22.1111 81.2309 22.3044C80.8006 22.4916 80.4364 22.7775 80.1439 23.158C79.8435 23.5486 79.6162 24.0399 79.4652 24.6318C79.3095 25.2378 79.23 25.9546 79.23 26.7781ZM89.2048 26.7781C89.2048 27.8895 89.0633 28.886 88.7826 29.7618C88.4994 30.6518 88.0715 31.4189 87.5013 32.0632C86.9249 32.7095 86.2383 33.1967 85.4447 33.5188C84.6558 33.839 83.7665 34 82.7731 34C82.1589 34 81.5754 33.9235 81.0233 33.7765C80.4672 33.6276 79.9466 33.4061 79.4652 33.1121C78.9848 32.8202 78.5545 32.4578 78.1786 32.0309C77.8058 31.6061 77.488 31.1189 77.2277 30.5732H77.2261C76.9658 30.0276 76.7707 29.4377 76.641 28.7995C76.5112 28.1673 76.4467 27.4908 76.4467 26.7781C76.4467 25.6647 76.5875 24.6701 76.8667 23.7922C77.149 22.9063 77.5754 22.1413 78.1432 21.501C78.7126 20.8588 79.3953 20.3755 80.1864 20.0574C80.9722 19.7373 81.8623 19.5783 82.8541 19.5783C83.8215 19.5783 84.6891 19.7413 85.462 20.0695C86.2392 20.3977 86.9179 20.891 87.4927 21.5494C88.0677 22.2017 88.4994 22.9688 88.7826 23.8466C89.0633 24.7123 89.2048 25.6929 89.2048 26.7781ZM64.7581 23.9412H67.179C67.8623 23.9412 68.453 23.8707 68.9469 23.7379C69.4189 23.609 69.8042 23.4197 70.0968 23.1681C70.3831 22.9204 70.6001 22.6084 70.7457 22.2359C70.8959 21.8493 70.9706 21.3903 70.9706 20.8628C70.9706 20.3272 70.8959 19.8742 70.7449 19.4977C70.6009 19.1433 70.3855 18.8554 70.0984 18.638C69.7972 18.4125 69.3967 18.2374 68.9006 18.1226C68.3822 17.9998 67.7602 17.9394 67.0326 17.9394H64.7581V23.9412ZM64.7581 26.4338V33.7564H62V15.4126H62.3642H67.1554C68.2517 15.4126 69.2143 15.5193 70.037 15.7347C70.8802 15.9542 71.58 16.2904 72.1291 16.7354C72.689 17.1884 73.1098 17.7521 73.3896 18.4326C73.6634 19.099 73.8018 19.8742 73.8018 20.754C73.8018 21.9983 73.4857 23.0473 72.8494 23.901C72.2933 24.6479 71.4967 25.2358 70.4616 25.6606L74.9776 33.2007L75.3104 33.7564H74.6669H72.269H72.0598L71.9545 33.5732L67.8277 26.4338H64.7581Z" fill="black"></path></g><defs><clipPath id="clip0_211_1400"><rect width="202" height="48" fill="white"></rect></clipPath></defs></svg> 