<svg width="27" height="27" viewBox="0 0 27 27" fill="none" xmlns="http://www.w3.org/2000/svg">
<path d="M0 6.48764C0 2.90462 2.90462 0 6.48764 0H20.1895C23.7726 0 26.6772 2.90462 26.6772 6.48764V20.1895C26.6772 23.7726 23.7726 26.6772 20.1895 26.6772H6.48764C2.90462 26.6772 0 23.7726 0 20.1895V6.48764Z" fill="url(#paint0_linear_26_57)"/>
<path d="M22.1104 13.3866C22.1104 18.2308 18.1827 22.1579 13.3385 22.1579C10.6773 22.1579 8.51147 19.9926 8.51147 17.3308C8.51147 16.6943 8.62955 16.0855 8.86285 15.5143C8.93317 15.3428 9.01362 15.1743 9.1047 15.0096L10.5149 12.5671C10.253 13.0412 10.1207 13.5615 10.1207 14.1127C10.1207 15.8589 11.5199 17.2857 13.2555 17.3298C13.2827 17.3308 13.3108 17.3308 13.3385 17.3308C13.3663 17.3308 13.3943 17.3308 13.4216 17.3298C15.1265 17.3083 16.674 16.6203 17.8142 15.5143C19.0225 14.3444 19.7745 12.7059 19.7745 10.8948C19.7745 9.79219 19.5096 8.75209 18.9862 7.80386L18.9841 7.80022C17.7688 5.69459 15.6694 4.61012 13.543 4.54395C16.4038 4.60882 19.2363 6.05738 20.8712 8.88937L21.0004 9.11306C21.003 9.11799 21.0059 9.12215 21.008 9.12708C21.7107 10.388 22.1106 11.8405 22.1106 13.3866H22.1104Z" fill="url(#paint1_linear_26_57)"/>
<path d="M19.7748 10.8949C19.7748 12.7062 19.0228 14.3447 17.8145 15.5143C16.6742 16.6203 15.1268 17.3083 13.4219 17.3298C15.158 17.286 16.5567 15.8592 16.5567 14.1127C16.5567 13.5613 16.4243 13.0412 16.1625 12.5671L13.3386 7.67673L10.5146 12.5671L9.10446 15.0096C9.01337 15.1744 8.93293 15.3425 8.8626 15.5143C8.62931 16.0855 8.51123 16.6943 8.51123 17.3309C8.51123 19.9926 10.6771 22.1579 13.3383 22.1579H13.2739C8.47282 22.1232 4.56467 18.1828 4.56726 13.3814C4.5683 11.8374 4.96794 10.3865 5.66938 9.12711C5.67198 9.12218 5.67483 9.11803 5.67691 9.1131L5.80614 8.8894C7.44103 6.05767 10.2735 4.60885 13.1343 4.54398C13.1681 4.54294 13.2018 4.54242 13.2358 4.5419C13.2529 4.54138 13.27 4.54138 13.2872 4.54138H13.3902C13.4073 4.54138 13.4245 4.54138 13.4416 4.5419C13.4753 4.54242 13.5091 4.54294 13.543 4.54398C15.6697 4.60989 17.7688 5.69437 18.9844 7.8L18.9864 7.80363C19.5099 8.75186 19.7748 9.79196 19.7748 10.8946V10.8949Z" fill="url(#paint2_linear_26_57)"/>
<defs>
<linearGradient id="paint0_linear_26_57" x1="13.3386" y1="0" x2="14.1041" y2="29.6226" gradientUnits="userSpaceOnUse">
<stop stop-color="#20E278"/>
<stop offset="1" stop-color="#0CC15E"/>
</linearGradient>
<linearGradient id="paint1_linear_26_57" x1="20.2803" y1="15.4536" x2="10.7173" y2="12.5764" gradientUnits="userSpaceOnUse">
<stop stop-color="white"/>
<stop offset="1" stop-color="white" stop-opacity="0.6"/>
</linearGradient>
<linearGradient id="paint2_linear_26_57" x1="20.3111" y1="15.7568" x2="8.11812" y2="10.0356" gradientUnits="userSpaceOnUse">
<stop stop-color="white" stop-opacity="0.6"/>
<stop offset="1" stop-color="white"/>
</linearGradient>
</defs>
</svg>
